<?xml version="1.0" encoding="UTF-8" ?>
<!DOCTYPE svg PUBLIC "-//W3C//DTD SVG 1.1//EN" "http://www.w3.org/Graphics/SVG/1.1/DTD/svg11.dtd">
<svg width="1212pt" height="252pt" viewBox="0 0 1212 252" version="1.1" xmlns="http://www.w3.org/2000/svg">
<g id="#01684fff">
<path fill="#01684f" opacity="1.00" d=" M 0.00 0.00 L 161.39 0.00 C 131.32 3.98 102.88 19.10 82.91 41.95 C 62.63 64.87 50.91 95.33 51.28 125.99 C 50.85 155.98 61.99 185.83 81.42 208.61 C 101.08 231.89 129.38 247.61 159.54 252.00 L 0.00 252.00 L 0.00 0.00 Z" />
<path fill="#01684f" opacity="1.00" d=" M 195.15 0.00 L 1212.00 0.00 L 1212.00 252.00 L 197.19 252.00 C 231.38 246.78 263.09 227.14 282.60 198.54 C 299.65 174.11 307.51 143.53 304.54 113.90 C 302.07 86.60 290.31 60.30 271.76 40.14 C 251.94 18.35 224.31 3.99 195.15 0.00 M 347.62 55.28 C 348.39 62.51 348.62 69.76 348.78 77.02 C 348.52 85.05 349.57 93.03 349.30 101.05 C 349.29 118.37 349.32 135.68 349.29 153.00 C 348.40 167.09 349.17 181.24 347.65 195.30 C 358.66 194.41 369.75 194.43 380.76 195.29 C 380.07 187.74 379.74 180.16 379.54 172.58 C 379.21 149.73 379.15 126.87 379.20 104.01 C 379.71 87.76 379.00 71.45 380.85 55.27 C 369.77 55.53 358.70 55.50 347.62 55.28 M 437.98 56.63 C 426.54 57.32 414.99 57.03 403.67 55.19 C 405.42 68.37 404.56 81.73 405.27 94.98 C 405.39 105.29 405.11 115.61 405.58 125.91 C 405.08 136.25 405.42 146.61 405.27 156.96 C 404.54 170.10 405.44 183.34 403.66 196.41 C 410.07 195.51 416.50 194.45 422.99 194.67 C 439.60 195.42 456.30 197.50 472.90 195.64 C 489.72 193.76 506.67 187.02 517.92 173.97 C 530.01 160.42 534.18 141.70 534.31 123.97 C 534.42 107.58 531.33 90.16 520.82 77.06 C 511.86 65.64 498.13 58.77 483.96 56.51 C 468.75 53.64 453.28 56.10 437.98 56.63 M 550.97 55.19 C 552.64 71.74 552.47 88.40 552.60 105.02 C 553.01 116.03 552.69 127.04 552.81 138.05 C 552.25 157.10 552.94 176.21 550.98 195.21 C 561.32 195.08 571.65 194.19 581.99 194.98 C 598.47 195.21 616.76 197.20 631.01 187.10 C 647.24 176.78 651.88 153.17 642.16 136.92 C 636.14 127.46 625.61 121.68 614.86 119.34 C 624.19 116.96 633.32 112.09 638.88 104.00 C 645.96 93.73 646.74 78.49 638.28 68.77 C 630.04 59.35 617.11 55.80 605.01 55.23 C 587.00 55.18 568.98 55.61 550.97 55.19 M 675.92 55.26 C 676.84 63.49 677.03 71.75 677.27 80.02 C 677.90 105.35 677.40 130.69 677.58 156.02 C 677.15 169.12 677.32 182.24 675.91 195.28 C 686.95 194.46 698.05 194.40 709.09 195.28 C 708.02 183.55 708.22 171.76 707.70 160.01 C 707.24 125.09 707.06 90.12 709.08 55.26 C 698.02 55.54 686.98 55.52 675.92 55.26 M 888.23 109.34 C 877.15 137.70 865.64 165.89 854.07 194.05 C 858.72 194.24 863.37 194.31 868.02 194.67 C 871.72 184.29 875.16 173.82 878.85 163.44 C 891.04 163.42 903.24 163.44 915.44 163.43 C 918.30 170.02 919.66 177.12 922.10 183.86 C 923.43 187.43 924.39 191.13 925.54 194.76 C 934.52 194.15 943.54 194.40 952.54 193.97 C 937.77 158.05 923.62 121.86 909.51 85.67 C 905.56 86.31 901.54 86.60 897.60 85.80 C 893.90 93.42 891.63 101.61 888.23 109.34 M 772.30 87.24 C 772.57 98.16 772.51 109.09 772.80 120.01 C 773.01 144.91 774.62 169.86 772.43 194.72 C 783.27 194.67 794.12 194.71 804.97 194.70 C 815.37 194.95 826.40 194.19 835.46 188.52 C 842.86 184.06 847.16 175.54 847.22 166.99 C 847.53 159.28 846.47 150.28 839.97 145.17 C 832.32 138.83 821.93 138.83 812.55 137.91 C 820.09 137.03 827.90 135.69 834.34 131.40 C 846.16 124.77 848.57 106.58 838.81 97.18 C 831.46 90.23 820.90 88.43 811.15 88.06 C 798.20 87.90 785.23 88.01 772.30 87.24 M 961.57 87.19 C 961.54 123.01 961.60 158.83 961.55 194.65 C 966.08 194.06 970.68 193.86 975.21 194.67 C 974.80 169.81 974.21 144.95 974.44 120.08 C 997.59 144.40 1020.30 169.19 1042.24 194.63 C 1046.86 193.69 1051.60 193.96 1056.25 194.73 C 1054.73 159.03 1053.07 123.16 1056.57 87.51 C 1052.03 88.50 1047.36 88.54 1042.80 87.75 C 1042.78 101.51 1043.45 115.27 1043.32 129.04 C 1043.90 139.09 1043.21 149.18 1043.84 159.24 C 1022.30 135.27 1000.59 111.47 979.18 87.41 C 973.34 88.67 967.43 87.66 961.57 87.19 M 1080.19 87.40 C 1081.55 102.23 1080.82 117.13 1080.99 132.00 C 1080.45 152.90 1080.26 173.80 1080.28 194.70 C 1088.91 193.46 1097.65 194.08 1106.31 194.69 C 1104.31 178.96 1105.49 163.04 1105.26 147.23 C 1116.44 162.67 1126.43 178.91 1137.03 194.74 C 1147.06 194.66 1157.10 194.69 1167.13 194.73 C 1152.38 174.06 1137.86 153.22 1123.15 132.51 C 1136.73 117.55 1150.61 102.87 1164.03 87.76 C 1157.54 88.98 1150.74 87.73 1144.41 88.16 C 1131.84 104.48 1119.06 120.68 1105.27 135.99 C 1105.21 119.90 1104.86 103.77 1106.58 87.75 C 1097.79 89.11 1088.95 88.76 1080.19 87.40 Z" />
<path fill="#01684f" opacity="1.00" d=" M 582.16 69.31 C 590.57 67.92 600.24 68.42 607.02 74.16 C 612.15 78.43 613.79 85.51 613.16 91.92 C 612.76 99.11 609.77 106.62 603.61 110.75 C 597.45 115.14 589.58 115.83 582.25 115.59 C 582.12 100.17 582.28 84.74 582.16 69.31 Z" />
<path fill="#01684f" opacity="1.00" d=" M 435.75 70.23 C 450.69 69.23 466.89 67.85 480.39 75.65 C 493.26 82.93 499.69 97.78 500.75 112.01 C 501.47 126.21 501.28 140.88 496.16 154.34 C 492.29 164.94 484.44 174.48 473.78 178.69 C 461.73 183.64 448.39 182.00 435.75 181.27 C 435.04 172.19 435.76 163.07 435.24 153.97 C 435.17 135.31 435.19 116.65 435.22 97.99 C 435.76 88.74 435.03 79.47 435.75 70.23 Z" />
<path fill="#01684f" opacity="1.00" d=" M 796.71 134.30 C 796.71 121.85 796.87 109.37 797.79 96.95 C 803.35 96.89 809.13 97.33 814.19 99.85 C 820.32 102.86 822.65 110.69 821.10 117.01 C 819.91 122.78 817.83 129.21 812.36 132.29 C 807.43 134.33 801.96 134.39 796.71 134.30 Z" />
<path fill="#01684f" opacity="1.00" d=" M 897.47 117.48 C 902.57 129.08 906.61 141.08 911.05 152.94 C 901.92 153.00 892.79 153.17 883.68 152.75 C 885.04 148.42 886.47 144.11 888.12 139.88 C 891.21 132.40 893.56 124.60 897.47 117.48 Z" />
<path fill="#01684f" opacity="1.00" d=" M 582.20 128.45 C 590.98 128.30 600.67 128.24 608.01 133.83 C 615.00 139.13 617.11 148.56 616.38 156.91 C 616.08 164.94 612.60 173.25 605.70 177.76 C 598.80 182.36 590.03 182.08 582.16 180.89 C 582.25 163.41 582.18 145.93 582.20 128.45 Z" />
<path fill="#01684f" opacity="1.00" d=" M 796.72 143.38 C 803.59 144.08 811.36 144.26 816.72 149.26 C 822.80 154.99 823.24 164.21 821.62 171.90 C 820.45 177.34 816.28 181.86 810.99 183.55 C 806.49 184.79 801.83 185.23 797.18 185.23 C 797.22 171.28 796.40 157.33 796.72 143.38 Z" />
</g>
<g id="#ffffffff">
<path fill="#ffffff" opacity="1.00" d=" M 161.39 0.00 L 195.15 0.00 C 224.31 3.99 251.94 18.35 271.76 40.14 C 290.31 60.30 302.07 86.60 304.54 113.90 C 307.51 143.53 299.65 174.11 282.60 198.54 C 263.09 227.14 231.38 246.78 197.19 252.00 L 159.54 252.00 C 129.38 247.61 101.08 231.89 81.42 208.61 C 61.99 185.83 50.85 155.98 51.28 125.99 C 50.91 95.33 62.63 64.87 82.91 41.95 C 102.88 19.10 131.32 3.98 161.39 0.00 M 127.99 49.06 C 116.86 60.32 104.78 71.06 96.92 85.01 C 78.69 117.35 83.44 160.38 107.23 188.67 C 119.21 203.56 136.32 213.81 154.67 218.78 C 154.75 218.25 154.91 217.20 154.99 216.67 C 155.04 217.21 155.15 218.29 155.20 218.83 C 174.87 223.84 196.16 221.92 214.62 213.46 C 229.43 206.80 242.42 196.03 251.57 182.58 C 272.92 152.65 274.41 109.20 253.29 78.75 C 246.41 68.46 236.99 60.31 228.43 51.49 C 224.79 47.89 221.02 43.94 215.95 42.48 C 212.31 42.28 209.91 45.62 208.53 48.56 C 206.48 53.44 204.75 58.65 204.99 64.01 C 205.13 70.24 209.03 75.55 213.40 79.65 C 221.16 86.84 229.71 93.46 235.50 102.46 C 249.05 121.81 252.92 147.63 245.19 169.99 C 239.15 188.77 225.62 205.38 207.73 213.96 C 225.75 204.43 238.98 186.26 241.87 166.02 C 244.82 146.28 238.91 125.35 225.78 110.28 C 219.44 102.37 210.67 97.04 202.12 91.86 C 199.25 90.17 194.83 89.51 192.76 92.75 C 190.36 96.70 190.43 101.59 190.21 106.07 C 190.20 138.05 190.21 170.02 190.20 202.00 C 190.50 204.01 189.31 205.79 187.60 206.72 C 182.92 209.27 177.24 211.10 172.05 208.97 C 168.71 207.85 163.59 206.50 163.80 202.09 C 163.77 168.71 163.82 135.32 163.79 101.94 C 163.46 98.07 163.29 93.46 160.05 90.80 C 156.93 88.90 153.15 90.80 150.42 92.57 C 146.96 95.07 143.34 97.33 139.82 99.75 C 115.15 117.38 104.62 152.48 116.39 180.59 C 121.88 194.41 132.36 205.95 145.29 213.22 C 114.10 197.86 98.15 158.63 107.73 125.56 C 110.88 114.62 116.77 104.61 123.72 95.67 C 130.42 87.06 140.93 82.08 146.59 72.60 C 150.43 66.43 149.86 58.58 147.12 52.11 C 145.65 48.56 144.33 44.21 140.54 42.51 C 135.40 41.67 131.52 46.04 127.99 49.06 M 173.42 44.47 C 164.61 46.53 159.74 57.29 163.72 65.35 C 167.07 73.90 179.05 76.85 186.15 71.18 C 192.32 66.71 193.89 57.40 189.85 51.03 C 186.63 45.47 179.57 42.79 173.42 44.47 Z" />
<path fill="#ffffff" opacity="1.00" d=" M 347.62 55.28 C 358.70 55.50 369.77 55.53 380.85 55.27 C 379.00 71.45 379.71 87.76 379.20 104.01 C 379.15 126.87 379.21 149.73 379.54 172.58 C 379.74 180.16 380.07 187.74 380.76 195.29 C 369.75 194.43 358.66 194.41 347.65 195.30 C 349.17 181.24 348.40 167.09 349.29 153.00 C 349.32 135.68 349.29 118.37 349.30 101.05 C 349.57 93.03 348.52 85.05 348.78 77.02 C 348.62 69.76 348.39 62.51 347.62 55.28 Z" />
<path fill="#ffffff" opacity="1.00" d=" M 437.98 56.63 C 453.28 56.10 468.75 53.64 483.96 56.51 C 498.13 58.77 511.86 65.64 520.82 77.06 C 531.33 90.16 534.42 107.58 534.31 123.97 C 534.18 141.70 530.01 160.42 517.92 173.97 C 506.67 187.02 489.72 193.76 472.90 195.64 C 456.30 197.50 439.60 195.42 422.99 194.67 C 416.50 194.45 410.07 195.51 403.66 196.41 C 405.44 183.34 404.54 170.10 405.27 156.96 C 405.42 146.61 405.08 136.25 405.58 125.91 C 405.11 115.61 405.39 105.29 405.27 94.98 C 404.56 81.73 405.42 68.37 403.67 55.19 C 414.99 57.03 426.54 57.32 437.98 56.63 M 435.75 70.23 C 435.03 79.47 435.76 88.74 435.22 97.99 C 435.19 116.65 435.17 135.31 435.24 153.97 C 435.76 163.07 435.04 172.19 435.75 181.27 C 448.39 182.00 461.73 183.64 473.78 178.69 C 484.44 174.48 492.29 164.94 496.16 154.34 C 501.28 140.88 501.47 126.21 500.75 112.01 C 499.69 97.78 493.26 82.93 480.39 75.65 C 466.89 67.85 450.69 69.23 435.75 70.23 Z" />
<path fill="#ffffff" opacity="1.00" d=" M 550.97 55.19 C 568.98 55.61 587.00 55.18 605.01 55.23 C 617.11 55.80 630.04 59.35 638.28 68.77 C 646.74 78.49 645.96 93.73 638.88 104.00 C 633.32 112.09 624.19 116.96 614.86 119.34 C 625.61 121.68 636.14 127.46 642.16 136.92 C 651.88 153.17 647.24 176.78 631.01 187.10 C 616.76 197.20 598.47 195.21 581.99 194.98 C 571.65 194.19 561.32 195.08 550.98 195.21 C 552.94 176.21 552.25 157.10 552.81 138.05 C 552.69 127.04 553.01 116.03 552.60 105.02 C 552.47 88.40 552.64 71.74 550.97 55.19 M 582.16 69.31 C 582.28 84.74 582.12 100.17 582.25 115.59 C 589.58 115.83 597.45 115.14 603.61 110.75 C 609.77 106.62 612.76 99.11 613.16 91.92 C 613.79 85.51 612.15 78.43 607.02 74.16 C 600.24 68.42 590.57 67.92 582.16 69.31 M 582.20 128.45 C 582.18 145.93 582.25 163.41 582.16 180.89 C 590.03 182.08 598.80 182.36 605.70 177.76 C 612.60 173.25 616.08 164.94 616.38 156.91 C 617.11 148.56 615.00 139.13 608.01 133.83 C 600.67 128.24 590.98 128.30 582.20 128.45 Z" />
<path fill="#ffffff" opacity="1.00" d=" M 675.92 55.26 C 686.98 55.52 698.02 55.54 709.08 55.26 C 707.06 90.12 707.24 125.09 707.70 160.01 C 708.22 171.76 708.02 183.55 709.09 195.28 C 698.05 194.40 686.95 194.46 675.91 195.28 C 677.32 182.24 677.15 169.12 677.58 156.02 C 677.40 130.69 677.90 105.35 677.27 80.02 C 677.03 71.75 676.84 63.49 675.92 55.26 Z" />
<path fill="#ffffff" opacity="1.00" d=" M 888.23 109.34 C 891.63 101.61 893.90 93.42 897.60 85.80 C 901.54 86.60 905.56 86.31 909.51 85.67 C 923.62 121.86 937.77 158.05 952.54 193.97 C 943.54 194.40 934.52 194.15 925.54 194.76 C 924.39 191.13 923.43 187.43 922.10 183.86 C 919.66 177.12 918.30 170.02 915.44 163.43 C 903.24 163.44 891.04 163.42 878.85 163.44 C 875.16 173.82 871.72 184.29 868.02 194.67 C 863.37 194.31 858.72 194.24 854.07 194.05 C 865.64 165.89 877.15 137.70 888.23 109.34 M 897.47 117.48 C 893.56 124.60 891.21 132.40 888.12 139.88 C 886.47 144.11 885.04 148.42 883.68 152.75 C 892.79 153.17 901.92 153.00 911.05 152.94 C 906.61 141.08 902.57 129.08 897.47 117.48 Z" />
<path fill="#ffffff" opacity="1.00" d=" M 772.30 87.24 C 785.23 88.01 798.20 87.90 811.15 88.06 C 820.90 88.43 831.46 90.23 838.81 97.18 C 848.57 106.58 846.16 124.77 834.34 131.40 C 827.90 135.69 820.09 137.03 812.55 137.91 C 821.93 138.83 832.32 138.83 839.97 145.17 C 846.47 150.28 847.53 159.28 847.22 166.99 C 847.16 175.54 842.86 184.06 835.46 188.52 C 826.40 194.19 815.37 194.95 804.97 194.70 C 794.12 194.71 783.27 194.67 772.43 194.72 C 774.62 169.86 773.01 144.91 772.80 120.01 C 772.51 109.09 772.57 98.16 772.30 87.24 M 796.71 134.30 C 801.96 134.39 807.43 134.33 812.36 132.29 C 817.83 129.21 819.91 122.78 821.10 117.01 C 822.65 110.69 820.32 102.86 814.19 99.85 C 809.13 97.33 803.35 96.89 797.79 96.95 C 796.87 109.37 796.71 121.85 796.71 134.30 M 796.72 143.38 C 796.40 157.33 797.22 171.28 797.18 185.23 C 801.83 185.23 806.49 184.79 810.99 183.55 C 816.28 181.86 820.45 177.34 821.62 171.90 C 823.24 164.21 822.80 154.99 816.72 149.26 C 811.36 144.26 803.59 144.08 796.72 143.38 Z" />
<path fill="#ffffff" opacity="1.00" d=" M 961.57 87.19 C 967.43 87.66 973.34 88.67 979.18 87.41 C 1000.59 111.47 1022.30 135.27 1043.84 159.24 C 1043.21 149.18 1043.90 139.09 1043.32 129.04 C 1043.45 115.27 1042.78 101.51 1042.80 87.75 C 1047.36 88.54 1052.03 88.50 1056.57 87.51 C 1053.07 123.16 1054.73 159.03 1056.25 194.73 C 1051.60 193.96 1046.86 193.69 1042.24 194.63 C 1020.30 169.19 997.59 144.40 974.44 120.08 C 974.21 144.95 974.80 169.81 975.21 194.67 C 970.68 193.86 966.08 194.06 961.55 194.65 C 961.60 158.83 961.54 123.01 961.57 87.19 Z" />
<path fill="#ffffff" opacity="1.00" d=" M 1080.19 87.40 C 1088.95 88.76 1097.79 89.11 1106.58 87.75 C 1104.86 103.77 1105.21 119.90 1105.27 135.99 C 1119.06 120.68 1131.84 104.48 1144.41 88.16 C 1150.74 87.73 1157.54 88.98 1164.03 87.76 C 1150.61 102.87 1136.73 117.55 1123.15 132.51 C 1137.86 153.22 1152.38 174.06 1167.13 194.73 C 1157.10 194.69 1147.06 194.66 1137.03 194.74 C 1126.43 178.91 1116.44 162.67 1105.26 147.23 C 1105.49 163.04 1104.31 178.96 1106.31 194.69 C 1097.65 194.08 1088.91 193.46 1080.28 194.70 C 1080.26 173.80 1080.45 152.90 1080.99 132.00 C 1080.82 117.13 1081.55 102.23 1080.19 87.40 Z" />
</g>
<g id="#ff4c00ff">
<path fill="#ff4c00" opacity="1.00" d=" M 127.99 49.06 C 131.52 46.04 135.40 41.67 140.54 42.51 C 144.33 44.21 145.65 48.56 147.12 52.11 C 149.86 58.58 150.43 66.43 146.59 72.60 C 140.93 82.08 130.42 87.06 123.72 95.67 C 116.77 104.61 110.88 114.62 107.73 125.56 C 98.15 158.63 114.10 197.86 145.29 213.22 C 132.36 205.95 121.88 194.41 116.39 180.59 C 104.62 152.48 115.15 117.38 139.82 99.75 C 143.34 97.33 146.96 95.07 150.42 92.57 C 153.15 90.80 156.93 88.90 160.05 90.80 C 163.29 93.46 163.46 98.07 163.79 101.94 C 163.82 135.32 163.77 168.71 163.80 202.09 C 163.59 206.50 168.71 207.85 172.05 208.97 C 177.24 211.10 182.92 209.27 187.60 206.72 C 189.31 205.79 190.50 204.01 190.20 202.00 C 190.21 170.02 190.20 138.05 190.21 106.07 C 190.43 101.59 190.36 96.70 192.76 92.75 C 194.83 89.51 199.25 90.17 202.12 91.86 C 210.67 97.04 219.44 102.37 225.78 110.28 C 238.91 125.35 244.82 146.28 241.87 166.02 C 238.98 186.26 225.75 204.43 207.73 213.96 C 225.62 205.38 239.15 188.77 245.19 169.99 C 252.92 147.63 249.05 121.81 235.50 102.46 C 229.71 93.46 221.16 86.84 213.40 79.65 C 209.03 75.55 205.13 70.24 204.99 64.01 C 204.75 58.65 206.48 53.44 208.53 48.56 C 209.91 45.62 212.31 42.28 215.95 42.48 C 221.02 43.94 224.79 47.89 228.43 51.49 C 236.99 60.31 246.41 68.46 253.29 78.75 C 274.41 109.20 272.92 152.65 251.57 182.58 C 242.42 196.03 229.43 206.80 214.62 213.46 C 196.16 221.92 174.87 223.84 155.20 218.83 C 155.15 218.29 155.04 217.21 154.99 216.67 C 154.91 217.20 154.75 218.25 154.67 218.78 C 136.32 213.81 119.21 203.56 107.23 188.67 C 83.44 160.38 78.69 117.35 96.92 85.01 C 104.78 71.06 116.86 60.32 127.99 49.06 Z" />
<path fill="#ff4c00" opacity="1.00" d=" M 173.42 44.47 C 179.57 42.79 186.63 45.47 189.85 51.03 C 193.89 57.40 192.32 66.71 186.15 71.18 C 179.05 76.85 167.07 73.90 163.72 65.35 C 159.74 57.29 164.61 46.53 173.42 44.47 Z" />
</g>
</svg>
